<svg width="116" height="20" viewBox="0 0 116 20" fill="none" xmlns="http://www.w3.org/2000/svg">
<path d="M5.72266 19.5156C3.37891 18.8581 2.20703 17.3444 2.20703 14.9746V13.0312C2.20703 11.6576 1.6276 10.9707 0.46875 10.9707V8.94922C1.60156 8.94922 2.18099 8.30143 2.20703 7.00586V4.93555C2.20703 3.73112 2.5 2.75781 3.08594 2.01562C3.67188 1.27344 4.55078 0.736328 5.72266 0.404297L6.26953 1.97656C5.77474 2.15885 5.40039 2.47786 5.14648 2.93359C4.89258 3.38281 4.75911 4.00781 4.74609 4.80859V6.85938C4.74609 8.33073 4.16341 9.36263 2.99805 9.95508C4.16341 10.554 4.74609 11.5924 4.74609 13.0703V15.1406C4.77865 16.6641 5.28646 17.5951 6.26953 17.9336L5.72266 19.5156ZM73.8086 16C73.6784 15.7461 73.584 15.4303 73.5254 15.0527C72.8418 15.8145 71.9531 16.1953 70.8594 16.1953C69.8242 16.1953 68.9648 15.8958 68.2812 15.2969C67.6042 14.6979 67.2656 13.9427 67.2656 13.0312C67.2656 11.9115 67.679 11.0521 68.5059 10.4531C69.3392 9.85417 70.5404 9.55143 72.1094 9.54492H73.4082V8.93945C73.4082 8.45117 73.2812 8.06055 73.0273 7.76758C72.7799 7.47461 72.3861 7.32812 71.8457 7.32812C71.3704 7.32812 70.9961 7.44206 70.7227 7.66992C70.4557 7.89779 70.3223 8.21029 70.3223 8.60742H67.5C67.5 7.99544 67.6888 7.42904 68.0664 6.9082C68.444 6.38737 68.9779 5.98047 69.668 5.6875C70.3581 5.38802 71.1328 5.23828 71.9922 5.23828C73.2943 5.23828 74.3262 5.56706 75.0879 6.22461C75.8561 6.87565 76.2402 7.79362 76.2402 8.97852V13.5586C76.2467 14.5612 76.3867 15.3197 76.6602 15.834V16H73.8086ZM71.4746 14.0371C71.8913 14.0371 72.2754 13.946 72.627 13.7637C72.9785 13.5749 73.2389 13.3242 73.4082 13.0117V11.1953H72.3535C70.9408 11.1953 70.1888 11.6836 70.0977 12.6602L70.0879 12.8262C70.0879 13.1777 70.2116 13.4674 70.459 13.6953C70.7064 13.9232 71.0449 14.0371 71.4746 14.0371ZM87.9297 10.8145C87.9297 12.5072 87.5684 13.8288 86.8457 14.7793C86.123 15.7233 85.1139 16.1953 83.8184 16.1953C82.6725 16.1953 81.7578 15.7559 81.0742 14.877L80.9473 16H78.4082V1H81.2305V6.38086C81.8815 5.61914 82.7376 5.23828 83.7988 5.23828C85.0879 5.23828 86.097 5.71354 86.8262 6.66406C87.5618 7.60807 87.9297 8.93945 87.9297 10.6582V10.8145ZM85.1074 10.6094C85.1074 9.54167 84.9382 8.76367 84.5996 8.27539C84.2611 7.7806 83.7565 7.5332 83.0859 7.5332C82.1875 7.5332 81.569 7.90104 81.2305 8.63672V12.8066C81.5755 13.5488 82.2005 13.9199 83.1055 13.9199C84.0169 13.9199 84.6159 13.4707 84.9023 12.5723C85.0391 12.1426 85.1074 11.4883 85.1074 10.6094ZM92.6562 16H89.8242V1H92.6562V16ZM99.8535 16.1953C98.304 16.1953 97.041 15.7201 96.0645 14.7695C95.0944 13.819 94.6094 12.5527 94.6094 10.9707V10.6973C94.6094 9.63607 94.8145 8.6888 95.2246 7.85547C95.6348 7.01562 96.2142 6.37109 96.9629 5.92188C97.7181 5.46615 98.5775 5.23828 99.541 5.23828C100.986 5.23828 102.122 5.69401 102.949 6.60547C103.783 7.51693 104.199 8.80924 104.199 10.4824V11.6348H97.4707C97.5618 12.3249 97.8353 12.8783 98.291 13.2949C98.7533 13.7116 99.3359 13.9199 100.039 13.9199C101.126 13.9199 101.976 13.526 102.588 12.7383L103.975 14.291C103.551 14.89 102.979 15.3587 102.256 15.6973C101.533 16.0293 100.732 16.1953 99.8535 16.1953ZM99.5312 7.52344C98.9714 7.52344 98.5156 7.71224 98.1641 8.08984C97.819 8.46745 97.5977 9.00781 97.5 9.71094H101.426V9.48633C101.413 8.86133 101.243 8.37956 100.918 8.04102C100.592 7.69596 100.13 7.52344 99.5312 7.52344ZM110.039 17.9336C111.029 17.582 111.536 16.638 111.562 15.1016V13.0312C111.562 11.5599 112.158 10.5378 113.35 9.96484C112.158 9.39193 111.562 8.35352 111.562 6.84961V4.80859C111.536 3.29167 111.029 2.34766 110.039 1.97656L110.586 0.404297C111.751 0.729818 112.627 1.26367 113.213 2.00586C113.799 2.74154 114.095 3.70833 114.102 4.90625V7.00586C114.128 8.30143 114.707 8.94922 115.84 8.94922V10.9707C114.681 10.9707 114.102 11.651 114.102 13.0117V15.1309C114.049 17.4095 112.878 18.8711 110.586 19.5156L110.039 17.9336Z" fill="#757575"/>
<path d="M23.5547 4.1543H19.1992V16H16.2695V4.1543H11.9727V1.78125H23.5547V4.1543ZM33.7695 12.1621L35.1562 5.43359H37.8809L35.1855 16H32.8223L30.8203 9.34961L28.8184 16H26.4648L23.7695 5.43359H26.4941L27.8711 12.1523L29.8047 5.43359H31.8457L33.7695 12.1621ZM44.1504 16.1953C42.6009 16.1953 41.3379 15.7201 40.3613 14.7695C39.3913 13.819 38.9062 12.5527 38.9062 10.9707V10.6973C38.9062 9.63607 39.1113 8.6888 39.5215 7.85547C39.9316 7.01562 40.5111 6.37109 41.2598 5.92188C42.015 5.46615 42.8743 5.23828 43.8379 5.23828C45.2832 5.23828 46.4193 5.69401 47.2461 6.60547C48.0794 7.51693 48.4961 8.80924 48.4961 10.4824V11.6348H41.7676C41.8587 12.3249 42.1322 12.8783 42.5879 13.2949C43.0501 13.7116 43.6328 13.9199 44.3359 13.9199C45.4232 13.9199 46.2728 13.526 46.8848 12.7383L48.2715 14.291C47.8483 14.89 47.2754 15.3587 46.5527 15.6973C45.8301 16.0293 45.0293 16.1953 44.1504 16.1953ZM43.8281 7.52344C43.2682 7.52344 42.8125 7.71224 42.4609 8.08984C42.1159 8.46745 41.8945 9.00781 41.7969 9.71094H45.7227V9.48633C45.7096 8.86133 45.5404 8.37956 45.2148 8.04102C44.8893 7.69596 44.4271 7.52344 43.8281 7.52344ZM54.9707 16.1953C53.4212 16.1953 52.1582 15.7201 51.1816 14.7695C50.2116 13.819 49.7266 12.5527 49.7266 10.9707V10.6973C49.7266 9.63607 49.9316 8.6888 50.3418 7.85547C50.752 7.01562 51.3314 6.37109 52.0801 5.92188C52.8353 5.46615 53.6947 5.23828 54.6582 5.23828C56.1035 5.23828 57.2396 5.69401 58.0664 6.60547C58.8997 7.51693 59.3164 8.80924 59.3164 10.4824V11.6348H52.5879C52.679 12.3249 52.9525 12.8783 53.4082 13.2949C53.8704 13.7116 54.4531 13.9199 55.1562 13.9199C56.2435 13.9199 57.0931 13.526 57.7051 12.7383L59.0918 14.291C58.6686 14.89 58.0957 15.3587 57.373 15.6973C56.6504 16.0293 55.8496 16.1953 54.9707 16.1953ZM54.6484 7.52344C54.0885 7.52344 53.6328 7.71224 53.2812 8.08984C52.9362 8.46745 52.7148 9.00781 52.6172 9.71094H56.543V9.48633C56.5299 8.86133 56.3607 8.37956 56.0352 8.04102C55.7096 7.69596 55.2474 7.52344 54.6484 7.52344ZM64.3066 2.83594V5.43359H66.1133V7.50391H64.3066V12.7773C64.3066 13.168 64.3815 13.4479 64.5312 13.6172C64.681 13.7865 64.9674 13.8711 65.3906 13.8711C65.7031 13.8711 65.9798 13.8483 66.2207 13.8027V15.9414C65.6673 16.1107 65.0977 16.1953 64.5117 16.1953C62.5326 16.1953 61.5234 15.196 61.4844 13.1973V7.50391H59.9414V5.43359H61.4844V2.83594H64.3066Z" fill="#E76A94"/>
</svg>
